<svg width="18" height="18" fill="none" xmlns="http://www.w3.org/2000/svg"><path fill-rule="evenodd" clip-rule="evenodd" d="M4.559 1H16a1 1 0 011 1v14a1 1 0 01-1 1H4.559a1 1 0 01-1-1v-.5h1.588v.292a.5.5 0 001 0v-1.584a.5.5 0 00-1 0v.292H3.558v-3h1.589v.298a.5.5 0 101 0v-1.585a.5.5 0 00-1 0v.287H3.558v-3h1.589v.303a.5.5 0 001 0V6.22a.5.5 0 10-1 0v.28H3.558v-3h1.589v.31a.5.5 0 001 0V2.224a.5.5 0 10-1 0V2.5H3.558V2a1 1 0 011-1zm-2 15v-.5H1.5A1.5 1.5 0 010 14v-2a1.5 1.5 0 011.5-1.5h1.058v-3H1.5A1.5 1.5 0 010 6V4a1.5 1.5 0 011.5-1.5h1.058V2a2 2 0 012-2H16a2 2 0 012 2v14a2 2 0 01-2 2H4.559a2 2 0 01-2-2zm0-4.5v3H1.5A.5.5 0 011 14v-2a.5.5 0 01.5-.5h1.058zm0-8H1.5A.5.5 0 001 4v2a.5.5 0 00.5.5h1.058v-3zm5.147 0h7.206v-1H7.706v1zm0 2h7.206v-1H7.706v1zm0 2h7.206v-1H7.706v1z" fill="#fff"/></svg>