<svg width="12" height="14" fill="none" xmlns="http://www.w3.org/2000/svg"><path d="M1.038 5.947c.413 0 .786-.248.946-.629A4.36 4.36 0 016 2.641a4.3 4.3 0 012.641.907l-.574.089a.447.447 0 00-.115.85l3.156 1.42a.448.448 0 00.631-.406l.016-3.477a.447.447 0 00-.82-.25l-.435.654A6.397 6.397 0 006 .58 6.427 6.427 0 00.086 4.508a1.034 1.034 0 00.952 1.439zm10.786 2.57a1.035 1.035 0 00-.863-.464c-.412 0-.785.248-.945.629A4.36 4.36 0 016 11.359a4.3 4.3 0 01-2.641-.907l.574-.089a.447.447 0 00.115-.85L.892 8.092a.448.448 0 00-.631.406l-.017 3.477a.447.447 0 00.82.25l.436-.654A6.397 6.397 0 006 13.42a6.426 6.426 0 005.914-3.927c.136-.32.101-.686-.09-.975z" fill="#fff"/></svg>